HIERARCHY
ROOT Hips
{
  OFFSET -33.9132 29.2015 117.021
  CHANNELS 6 Xposition Yposition Zposition Zrotation Xrotation Yrotation
  JOINT LeftUpLeg
  {
    OFFSET 8.64259 1.95398 -2.38835
    CHANNELS 3 Zrotation Xrotation Yrotation
    JOINT LeftLeg
    {
      OFFSET 43.7702 0 0
      CHANNELS 3 Zrotation Xrotation Yrotation
      JOINT LeftFoot
      {
        OFFSET 40.6238 0 0
        CHANNELS 3 Zrotation Xrotation Yrotation
        JOINT LeftToeBase
        {
          OFFSET 12.7242 0 0
          CHANNELS 3 Zrotation Xrotation Yrotation
          End Site
          {
            OFFSET 0 0 0
          }
        }
      }
    }
  }
  JOINT RightUpLeg
  {
    OFFSET -8.2249 1.95398 -2.59336
    CHANNELS 3 Zrotation Xrotation Yrotation
    JOINT RightLeg
    {
      OFFSET 43.5653 0 0
      CHANNELS 3 Zrotation Xrotation Yrotation
      JOINT RightFoot
      {
        OFFSET 40.6238 0 0
        CHANNELS 3 Zrotation Xrotation Yrotation
        JOINT RightToeBase
        {
          OFFSET 12.7242 0 0
          CHANNELS 3 Zrotation Xrotation Yrotation
          End Site
          {
            OFFSET 0 0 0
          }
        }
      }
    }
  }
  JOINT Spine
  {
    OFFSET 0.165834 0.87714 6.61349
    CHANNELS 3 Zrotation Xrotation Yrotation
    JOINT Spine1
    {
      OFFSET 7.38963 1.71661e-005 0
      CHANNELS 3 Zrotation Xrotation Yrotation
      JOINT Spine2
      {
        OFFSET 11.9445 1.14441e-005 0
        CHANNELS 3 Zrotation Xrotation Yrotation
        JOINT Spine3
        {
          OFFSET 14.7254 4.19617e-005 0
          CHANNELS 3 Zrotation Xrotation Yrotation
          JOINT Spine4
          {
            OFFSET 10.9679 0 0
            CHANNELS 3 Zrotation Xrotation Yrotation
            JOINT RightShoulder
            {
              OFFSET 2.46616 -1.6653 3.69651
              CHANNELS 3 Zrotation Xrotation Yrotation
              JOINT RightArm
              {
                OFFSET 13.0012 0 0
                CHANNELS 3 Zrotation Xrotation Yrotation
                JOINT RightForeArm
                {
                  OFFSET 28.7848 1.62311e-005 0
                  CHANNELS 3 Zrotation Xrotation Yrotation
                  JOINT RightHand
                  {
                    OFFSET 26.5688 1.62095e-005 0
                    CHANNELS 3 Zrotation Xrotation Yrotation
                    End Site
                    {
                      OFFSET 0 0 0
                    }
                  }
                }
              }
            }
            JOINT LeftShoulder
            {
              OFFSET 2.38034 -1.29275 -3.7523
              CHANNELS 3 Zrotation Xrotation Yrotation
              JOINT LeftArm
              {
                OFFSET 16.3182 6.07031e-005 0
                CHANNELS 3 Zrotation Xrotation Yrotation
                JOINT LeftForeArm
                {
                  OFFSET 27.0901 0 0
                  CHANNELS 3 Zrotation Xrotation Yrotation
                  JOINT LeftHand
                  {
                    OFFSET 24.5451 1.51738e-005 0
                    CHANNELS 3 Zrotation Xrotation Yrotation
                    End Site
                    {
                      OFFSET 0 0 0
                    }
                  }
                }
              }
            }
            JOINT Neck
            {
              OFFSET 5.0226 -0.0266342 0
              CHANNELS 3 Zrotation Xrotation Yrotation
              JOINT Head
              {
                OFFSET 6.69364 2.86102e-005 0
                CHANNELS 3 Zrotation Xrotation Yrotation
                End Site
                {
                  OFFSET 0 0 0
                }
              }
            }
          }
        }
      }
    }
  }
}
MOTION
Frames:	6
Frame Time:	0.0416667
40.1285 98.8369 21.1028 101.665 -60.1937 104.495 -174.14 -9.32643 88.4183 -19.2363 27.0041 -0.122493 80.2248 13.4778 -0.495941 7.48575 -13.4468 4.07599 178.065 16.0556 92.3468 -15.7129 -6.38216 -0.787098 63.0267 -2.77765 -1.11205 25.5833 0.296183 4.26306 -0.796975 8.06157 -90.5066 10.7438 -1.82051 -0.839952 -0.926102 -1.85571 -0.758987 -23.4666 -1.48391 -1.34831 -3.45394 -1.48392 -1.34831 90.3249 -30.0527 -106.097 47.5858 8.8113 5.68086 -4.94886 -36.464 -5.25778 -15.8798 1.73164 -18.1201 -87.8132 -44.0984 80.8894 -26.7922 -7.83095 -35.1205 -10.5784 26.6485 -0.0210915 11.7922 -1.95208 -19.3291 3.65549 -0.480531 -9.02275 -2.19077 1.07418 -0.0505809 
43.6498 96.8303 29.8126 99.7082 -56.2178 102.395 -171.131 -15.8474 92.5748 -17.4295 32.5088 -0.839963 83.5254 16.1461 -0.81566 9.33762 -12.4148 4.22943 177.481 17.7636 94.6353 -6.0352 -4.08438 2.06336 63.0053 -2.1708 1.40718 30.0821 -0.974618 1.63497 -0.857863 8.07127 -90.5318 10.7236 -1.95344 -0.877993 -0.946103 -1.99019 -0.79114 -23.4874 -1.59929 -1.42455 -3.47476 -1.59927 -1.42456 90.5986 -30.9655 -105.221 46.4664 9.83391 8.32379 -4.96414 -36.7234 -5.26536 -12.7024 1.33382 -17.9318 -87.7675 -43.9195 80.9236 -28.7269 -6.27085 -37.2052 -10.1974 30.4124 -0.0175552 11.8492 -2.49141 -22.9784 4.45905 -0.908955 -10.9989 -2.12094 1.0652 0.013474 
48.8251 95.8363 39.2996 99.8485 -52.4948 102.793 -169.975 -21.062 95.0938 -20.5779 35.1414 1.55678 77.8023 13.4205 2.58733 18.6721 -5.83007 1.93883 178.65 22.1544 96.3998 -21.713 -10.7442 0.443965 58.8632 1.70543 -1.02062 22.3422 1.52555 4.69143 -1.00699 8.0415 -90.7008 10.7787 -2.32845 -1.17796 -0.890604 -2.37805 -1.07431 -23.4332 -1.8668 -1.82338 -3.42053 -1.86682 -1.82338 91.2945 -31.7289 -103.602 45.9255 9.74939 7.38186 -5.01363 -37.5488 -5.29083 -12.4229 0.801575 -13.0976 -88.0406 -45.4531 80.7956 -30.8674 -7.23089 -33.5652 -9.63402 33.7004 -0.0151872 13.527 -2.59611 -21.4585 5.08412 -0.515345 -8.56397 -2.77359 1.06478 -1.55039 
54.4392 95.9714 48.1718 100.228 -49.2297 104.095 -171.273 -12.8104 97.0924 -41.9897 35.7663 4.64621 61.3941 1.24681 1.49514 24.0977 -0.211847 -4.38721 177.338 20.3817 97.8955 -32.8342 -7.76935 1.13996 62.8563 -1.21739 -1.40583 21.8857 2.27077 2.94588 -0.897673 7.96071 -91.0297 10.9307 -2.26345 -1.83501 -0.73942 -2.342 -1.73362 -23.273 -1.60749 -2.43027 -3.26034 -1.60751 -2.43028 91.3751 -30.1094 -103.984 46.3589 9.16699 5.57099 -4.95846 -36.6277 -5.26247 -12.7699 1.14547 -16.0451 -88.5006 -45.792 80.1393 -32.517 -7.18986 -27.9437 -10.3021 33.8559 -0.012887 8.5277 -0.856054 -15.4916 5.20482 -0.466014 -6.27086 -3.26996 0.697857 -0.357498 
58.8598 96.7415 55.2272 101.818 -46.5471 105.369 -172.905 1.57461 98.4056 -60.8326 22.5486 4.3234 54.8064 -3.5852 -3.07609 15.5095 -8.5211 3.77329 176.897 13.6603 98.7685 -34.4846 -6.08223 1.40719 68.0619 -4.89782 -3.3514 25.1232 1.03853 2.28324 -0.45536 8.18395 -91.1087 10.4867 -1.41568 -2.07698 -1.18501 -1.5057 -2.01269 -23.7091 -0.726205 -2.40624 -3.69649 -0.726216 -2.40624 90.7685 -29.8716 -105.28 45.4326 7.78846 -0.979994 -5.06673 -38.4188 -5.31871 -15.562 1.61797 -17.5855 -89.2292 -47.1379 79.2859 -29.4319 -7.64856 -22.2585 -10.6757 40.9135 -0.0123125 2.66864 0.123332 -14.6419 5.93529 -0.956435 -5.1958 -1.55304 0.0424365 -1.15529 
63.174 98.3483 61.1385 101.136 -45.5224 101.972 -174.15 14.0325 92.6091 -59.8681 9.19929 2.55057 68.7954 6.42053 2.07357 14.043 -10.2941 5.17887 176.333 6.73438 96.5319 -30.4456 -5.1011 0.695308 70.829 -6.36544 -2.87346 25.6077 0.997659 1.67021 0.0963144 8.23008 -90.7457 10.4119 -0.14979 -1.4681 -1.25984 -0.214253 -1.46009 -23.7884 0.298314 -1.44525 -3.77576 0.298305 -1.44526 90.1169 -29.5313 -106.703 43.0742 6.79868 -8.75374 -5.14522 -39.6657 -5.36148 -17.3652 1.74476 -17.1001 -88.9754 -47.6259 79.7808 -25.7345 -9.66089 -13.2905 -10.6857 35.1364 -0.0102804 4.99638 -0.243797 -13.8458 4.93004 -1.74275 -4.88871 0.153544 -0.86883 -1.78636 
